<svg width="115" height="24" viewBox="0 0 115 24" fill="none" xmlns="http://www.w3.org/2000/svg">
<path d="M12 8C16.9706 8 21 6.65685 21 5C21 3.34315 16.9706 2 12 2C7.02944 2 3 3.34315 3 5C3 6.65685 7.02944 8 12 8Z" stroke="#707070" stroke-linecap="round" stroke-linejoin="round"/>
<path d="M21 12C21 13.66 17 15 12 15C7 15 3 13.66 3 12" stroke="#707070" stroke-linecap="round" stroke-linejoin="round"/>
<path d="M3 5V19C3 20.66 7 22 12 22C17 22 21 20.66 21 19V5" stroke="#707070" stroke-linecap="round" stroke-linejoin="round"/>
<path d="M47.904 15.728H43.248L42.448 18H40.544L44.528 6.864H46.64L50.624 18H48.704L47.904 15.728ZM47.392 14.24L45.584 9.072L43.76 14.24H47.392ZM56.8043 9.04C57.4976 9.04 58.1163 9.184 58.6603 9.472C59.2149 9.76 59.6469 10.1867 59.9563 10.752C60.2656 11.3173 60.4203 12 60.4203 12.8V18H58.6123V13.072C58.6123 12.2827 58.4149 11.68 58.0203 11.264C57.6256 10.8373 57.0869 10.624 56.4043 10.624C55.7216 10.624 55.1776 10.8373 54.7723 11.264C54.3776 11.68 54.1803 12.2827 54.1803 13.072V18H52.3563V9.184H54.1803V10.192C54.4789 9.82933 54.8576 9.54667 55.3163 9.344C55.7856 9.14133 56.2816 9.04 56.8043 9.04ZM62.1389 13.552C62.1389 12.6667 62.3202 11.8827 62.6829 11.2C63.0562 10.5173 63.5575 9.98933 64.1869 9.616C64.8269 9.232 65.5309 9.04 66.2989 9.04C66.9922 9.04 67.5949 9.17867 68.1069 9.456C68.6295 9.72267 69.0455 10.0587 69.3549 10.464V9.184H71.1949V18H69.3549V16.688C69.0455 17.104 68.6242 17.4507 68.0909 17.728C67.5575 18.0053 66.9495 18.144 66.2669 18.144C65.5095 18.144 64.8162 17.952 64.1869 17.568C63.5575 17.1733 63.0562 16.6293 62.6829 15.936C62.3202 15.232 62.1389 14.4373 62.1389 13.552ZM69.3549 13.584C69.3549 12.976 69.2269 12.448 68.9709 12C68.7255 11.552 68.4002 11.2107 67.9949 10.976C67.5895 10.7413 67.1522 10.624 66.6829 10.624C66.2135 10.624 65.7762 10.7413 65.3709 10.976C64.9655 11.2 64.6349 11.536 64.3789 11.984C64.1335 12.4213 64.0109 12.944 64.0109 13.552C64.0109 14.16 64.1335 14.6933 64.3789 15.152C64.6349 15.6107 64.9655 15.9627 65.3709 16.208C65.7869 16.4427 66.2242 16.56 66.6829 16.56C67.1522 16.56 67.5895 16.4427 67.9949 16.208C68.4002 15.9733 68.7255 15.632 68.9709 15.184C69.2269 14.7253 69.3549 14.192 69.3549 13.584ZM75.4146 6.16V18H73.5906V6.16H75.4146ZM85.7454 9.184L80.3374 22.144H78.4494L80.2414 17.856L76.7694 9.184H78.8014L81.2814 15.904L83.8574 9.184H85.7454ZM89.2499 10.672V15.552C89.2499 15.8827 89.3245 16.1227 89.4739 16.272C89.6339 16.4107 89.9005 16.48 90.2739 16.48H91.3939V18H89.9539C89.1325 18 88.5032 17.808 88.0659 17.424C87.6285 17.04 87.4099 16.416 87.4099 15.552V10.672H86.3699V9.184H87.4099V6.992H89.2499V9.184H91.3939V10.672H89.2499ZM94.003 8.016C93.6723 8.016 93.395 7.904 93.171 7.68C92.947 7.456 92.835 7.17867 92.835 6.848C92.835 6.51733 92.947 6.24 93.171 6.016C93.395 5.792 93.6723 5.68 94.003 5.68C94.323 5.68 94.595 5.792 94.819 6.016C95.043 6.24 95.155 6.51733 95.155 6.848C95.155 7.17867 95.043 7.456 94.819 7.68C94.595 7.904 94.323 8.016 94.003 8.016ZM94.899 9.184V18H93.075V9.184H94.899ZM96.6858 13.584C96.6858 12.6773 96.8671 11.8827 97.2298 11.2C97.6031 10.5067 98.1151 9.97333 98.7658 9.6C99.4164 9.22667 100.163 9.04 101.006 9.04C102.072 9.04 102.952 9.296 103.646 9.808C104.35 10.3093 104.824 11.0293 105.07 11.968H103.102C102.942 11.5307 102.686 11.1893 102.334 10.944C101.982 10.6987 101.539 10.576 101.006 10.576C100.259 10.576 99.6618 10.8427 99.2138 11.376C98.7764 11.8987 98.5578 12.6347 98.5578 13.584C98.5578 14.5333 98.7764 15.2747 99.2138 15.808C99.6618 16.3413 100.259 16.608 101.006 16.608C102.062 16.608 102.76 16.144 103.102 15.216H105.07C104.814 16.112 104.334 16.8267 103.63 17.36C102.926 17.8827 102.051 18.144 101.006 18.144C100.163 18.144 99.4164 17.9573 98.7658 17.584C98.1151 17.2 97.6031 16.6667 97.2298 15.984C96.8671 15.2907 96.6858 14.4907 96.6858 13.584ZM110.088 18.144C109.394 18.144 108.77 18.0213 108.216 17.776C107.672 17.52 107.24 17.1787 106.92 16.752C106.6 16.3147 106.429 15.8293 106.408 15.296H108.296C108.328 15.6693 108.504 15.984 108.824 16.24C109.154 16.4853 109.565 16.608 110.056 16.608C110.568 16.608 110.962 16.512 111.24 16.32C111.528 16.1173 111.672 15.8613 111.672 15.552C111.672 15.2213 111.512 14.976 111.192 14.816C110.882 14.656 110.386 14.48 109.704 14.288C109.042 14.1067 108.504 13.9307 108.088 13.76C107.672 13.5893 107.309 13.328 107 12.976C106.701 12.624 106.552 12.16 106.552 11.584C106.552 11.1147 106.69 10.688 106.968 10.304C107.245 9.90933 107.64 9.6 108.152 9.376C108.674 9.152 109.272 9.04 109.944 9.04C110.946 9.04 111.752 9.296 112.36 9.808C112.978 10.3093 113.309 10.9973 113.352 11.872H111.528C111.496 11.4773 111.336 11.1627 111.048 10.928C110.76 10.6933 110.37 10.576 109.88 10.576C109.4 10.576 109.032 10.6667 108.776 10.848C108.52 11.0293 108.392 11.2693 108.392 11.568C108.392 11.8027 108.477 12 108.648 12.16C108.818 12.32 109.026 12.448 109.272 12.544C109.517 12.6293 109.88 12.7413 110.36 12.88C111 13.0507 111.522 13.2267 111.928 13.408C112.344 13.5787 112.701 13.8347 113 14.176C113.298 14.5173 113.453 14.9707 113.464 15.536C113.464 16.0373 113.325 16.4853 113.048 16.88C112.77 17.2747 112.376 17.584 111.864 17.808C111.362 18.032 110.77 18.144 110.088 18.144Z" fill="#707070"/>
</svg>
