<svg width="20" height="20" viewBox="0 0 20 20" fill="none" xmlns="http://www.w3.org/2000/svg">
<path fill-rule="evenodd" clip-rule="evenodd" d="M16.9059 4.36898C17.2301 4.36898 17.5 4.63814 17.5 4.98064V5.2973C17.5 5.63146 17.2301 5.90896 16.9059 5.90896H3.09488C2.76988 5.90896 2.5 5.63146 2.5 5.2973V4.98064C2.5 4.63814 2.76988 4.36898 3.09488 4.36898H5.52464C6.01821 4.36898 6.44775 4.01815 6.55879 3.52315L6.68603 2.95482C6.88378 2.18067 7.53458 1.6665 8.27939 1.6665H11.7206C12.4573 1.6665 13.1154 2.18067 13.3059 2.91399L13.442 3.52232C13.5522 4.01815 13.9818 4.36898 14.4762 4.36898H16.9059ZM15.6713 15.9451C15.925 13.581 16.3691 7.96438 16.3691 7.90771C16.3854 7.73605 16.3294 7.57355 16.2184 7.44272C16.0993 7.32022 15.9485 7.24772 15.7824 7.24772H4.22359C4.05663 7.24772 3.89778 7.32022 3.78756 7.44272C3.67572 7.57355 3.62061 7.73605 3.62871 7.90771C3.6302 7.91813 3.64614 8.11597 3.67278 8.44673C3.79114 9.91609 4.12079 14.0086 4.33381 15.9451C4.48456 17.3718 5.42064 18.2684 6.77654 18.3009C7.82284 18.3251 8.90075 18.3334 10.003 18.3334C11.0412 18.3334 12.0956 18.3251 13.1743 18.3009C14.5772 18.2768 15.5125 17.396 15.6713 15.9451Z" fill="#CF3636"/>
</svg>
