<svg width="89" height="24" viewBox="0 0 89 24" fill="none" xmlns="http://www.w3.org/2000/svg">
<path d="M19 3H5C3.89543 3 3 3.89543 3 5V19C3 20.1046 3.89543 21 5 21H19C20.1046 21 21 20.1046 21 19V5C21 3.89543 20.1046 3 19 3Z" stroke="black" stroke-linecap="round" stroke-linejoin="round"/>
<path d="M3 9H21" stroke="black" stroke-linecap="round" stroke-linejoin="round"/>
<path d="M9 21V9" stroke="black" stroke-linecap="round" stroke-linejoin="round"/>
<path d="M47.152 12.288C47.7493 12.3947 48.256 12.7093 48.672 13.232C49.088 13.7547 49.296 14.3467 49.296 15.008C49.296 15.5733 49.1467 16.0853 48.848 16.544C48.56 16.992 48.1387 17.3493 47.584 17.616C47.0293 17.872 46.384 18 45.648 18H41.2V6.88H45.44C46.1973 6.88 46.848 7.008 47.392 7.264C47.936 7.52 48.3467 7.86667 48.624 8.304C48.9013 8.73067 49.04 9.21067 49.04 9.744C49.04 10.384 48.8693 10.9173 48.528 11.344C48.1867 11.7707 47.728 12.0853 47.152 12.288ZM43.024 11.552H45.28C45.8773 11.552 46.3413 11.4187 46.672 11.152C47.0133 10.8747 47.184 10.48 47.184 9.968C47.184 9.46667 47.0133 9.07733 46.672 8.8C46.3413 8.512 45.8773 8.368 45.28 8.368H43.024V11.552ZM45.488 16.512C46.1067 16.512 46.592 16.3627 46.944 16.064C47.296 15.7653 47.472 15.3493 47.472 14.816C47.472 14.272 47.2853 13.84 46.912 13.52C46.5387 13.2 46.0427 13.04 45.424 13.04H43.024V16.512H45.488ZM55.1021 18.144C54.2701 18.144 53.5181 17.9573 52.8461 17.584C52.1741 17.2 51.6461 16.6667 51.2621 15.984C50.8781 15.2907 50.6861 14.4907 50.6861 13.584C50.6861 12.688 50.8835 11.8933 51.2781 11.2C51.6728 10.5067 52.2115 9.97333 52.8941 9.6C53.5768 9.22667 54.3395 9.04 55.1821 9.04C56.0248 9.04 56.7875 9.22667 57.4701 9.6C58.1528 9.97333 58.6915 10.5067 59.0861 11.2C59.4808 11.8933 59.6781 12.688 59.6781 13.584C59.6781 14.48 59.4755 15.2747 59.0701 15.968C58.6648 16.6613 58.1101 17.2 57.4061 17.584C56.7128 17.9573 55.9448 18.144 55.1021 18.144ZM55.1021 16.56C55.5715 16.56 56.0088 16.448 56.4141 16.224C56.8301 16 57.1661 15.664 57.4221 15.216C57.6781 14.768 57.8061 14.224 57.8061 13.584C57.8061 12.944 57.6835 12.4053 57.4381 11.968C57.1928 11.52 56.8675 11.184 56.4621 10.96C56.0568 10.736 55.6195 10.624 55.1501 10.624C54.6808 10.624 54.2435 10.736 53.8381 10.96C53.4435 11.184 53.1288 11.52 52.8941 11.968C52.6595 12.4053 52.5421 12.944 52.5421 13.584C52.5421 14.5333 52.7821 15.2693 53.2621 15.792C53.7528 16.304 54.3661 16.56 55.1021 16.56ZM60.8733 13.552C60.8733 12.6667 61.0546 11.8827 61.4173 11.2C61.7906 10.5173 62.2919 9.98933 62.9213 9.616C63.5613 9.232 64.2653 9.04 65.0333 9.04C65.7266 9.04 66.3293 9.17867 66.8413 9.456C67.3639 9.72267 67.7799 10.0587 68.0893 10.464V9.184H69.9293V18H68.0893V16.688C67.7799 17.104 67.3586 17.4507 66.8253 17.728C66.2919 18.0053 65.6839 18.144 65.0013 18.144C64.2439 18.144 63.5506 17.952 62.9213 17.568C62.2919 17.1733 61.7906 16.6293 61.4173 15.936C61.0546 15.232 60.8733 14.4373 60.8733 13.552ZM68.0893 13.584C68.0893 12.976 67.9613 12.448 67.7053 12C67.4599 11.552 67.1346 11.2107 66.7293 10.976C66.3239 10.7413 65.8866 10.624 65.4173 10.624C64.9479 10.624 64.5106 10.7413 64.1053 10.976C63.6999 11.2 63.3693 11.536 63.1133 11.984C62.8679 12.4213 62.7453 12.944 62.7453 13.552C62.7453 14.16 62.8679 14.6933 63.1133 15.152C63.3693 15.6107 63.6999 15.9627 64.1053 16.208C64.5213 16.4427 64.9586 16.56 65.4173 16.56C65.8866 16.56 66.3239 16.4427 66.7293 16.208C67.1346 15.9733 67.4599 15.632 67.7053 15.184C67.9613 14.7253 68.0893 14.192 68.0893 13.584ZM74.149 10.464C74.4157 10.016 74.7677 9.66933 75.205 9.424C75.653 9.168 76.181 9.04 76.789 9.04V10.928H76.325C75.6103 10.928 75.0663 11.1093 74.693 11.472C74.3303 11.8347 74.149 12.464 74.149 13.36V18H72.325V9.184H74.149V10.464ZM77.8576 13.552C77.8576 12.6667 78.039 11.8827 78.4016 11.2C78.775 10.5173 79.2763 9.98933 79.9056 9.616C80.5456 9.232 81.255 9.04 82.0336 9.04C82.6096 9.04 83.175 9.168 83.7296 9.424C84.295 9.66933 84.743 10 85.0736 10.416V6.16H86.9136V18H85.0736V16.672C84.775 17.0987 84.359 17.4507 83.8256 17.728C83.303 18.0053 82.7003 18.144 82.0176 18.144C81.2496 18.144 80.5456 17.952 79.9056 17.568C79.2763 17.1733 78.775 16.6293 78.4016 15.936C78.039 15.232 77.8576 14.4373 77.8576 13.552ZM85.0736 13.584C85.0736 12.976 84.9456 12.448 84.6896 12C84.4443 11.552 84.119 11.2107 83.7136 10.976C83.3083 10.7413 82.871 10.624 82.4016 10.624C81.9323 10.624 81.495 10.7413 81.0896 10.976C80.6843 11.2 80.3536 11.536 80.0976 11.984C79.8523 12.4213 79.7296 12.944 79.7296 13.552C79.7296 14.16 79.8523 14.6933 80.0976 15.152C80.3536 15.6107 80.6843 15.9627 81.0896 16.208C81.5056 16.4427 81.943 16.56 82.4016 16.56C82.871 16.56 83.3083 16.4427 83.7136 16.208C84.119 15.9733 84.4443 15.632 84.6896 15.184C84.9456 14.7253 85.0736 14.192 85.0736 13.584Z" fill="black"/>
</svg>
