<svg width="31" height="28" viewBox="0 0 31 28" fill="none" xmlns="http://www.w3.org/2000/svg">
<path d="M2.86988 1.77998L7.32988 6.23998C4.51022 8.0544 2.20604 10.5652 0.639883 13.53L0.379883 14L0.639883 14.48C4.00988 20.71 9.91988 24.48 16.4599 24.48C19.0127 24.4805 21.5324 23.9027 23.8299 22.79L28.8299 27.79L30.5799 26.29L4.57988 0.289978L2.86988 1.77998ZM12.6199 11.53L19.2699 18.18C18.5187 18.6455 17.6536 18.8947 16.7699 18.9C16.1278 18.9 15.4921 18.773 14.8993 18.5264C14.3064 18.2798 13.7682 17.9184 13.3156 17.463C12.863 17.0076 12.5049 16.4672 12.2619 15.8729C12.019 15.2785 11.8959 14.642 11.8999 14C11.9106 13.1265 12.1596 12.2725 12.6199 11.53ZM11.1699 10.08C10.2343 11.3994 9.79581 13.0073 9.932 14.619C10.0682 16.2307 10.7703 17.7422 11.914 18.8859C13.0577 20.0296 14.5692 20.7317 16.1809 20.8679C17.7926 21.0041 19.4005 20.5655 20.7199 19.63L22.3199 21.23C20.4677 22.022 18.4742 22.4302 16.4599 22.43C10.8299 22.43 5.70988 19.29 2.65988 14C4.12395 11.4085 6.23189 9.23854 8.77988 7.69998L11.1699 10.08Z" fill="#828282"/>
</svg>
