<svg width="16" height="16" viewBox="0 0 16 16" fill="none" xmlns="http://www.w3.org/2000/svg">
<path d="M2.33324 5.33326C2.33338 4.7012 2.49689 4.07991 2.80792 3.52968C3.11895 2.97945 3.56694 2.51896 4.1084 2.1929C4.64987 1.86685 5.26642 1.6863 5.89824 1.66877C6.53005 1.65124 7.15567 1.79734 7.71437 2.09287C8.27308 2.38841 8.7459 2.82336 9.08696 3.3555C9.42802 3.88764 9.62572 4.49891 9.6609 5.12999C9.69607 5.76107 9.56751 6.39052 9.2877 6.95727C9.00788 7.52401 8.58632 8.0088 8.06391 8.36459C9.18891 8.77722 10.1647 9.51707 10.8657 10.4889C11.5666 11.4608 11.9607 12.6202 11.9972 13.8179C11.9957 13.9471 11.9443 14.0706 11.8538 14.1627C11.7633 14.2549 11.6407 14.3085 11.5116 14.3124C11.3825 14.3162 11.2569 14.2701 11.1611 14.1835C11.0652 14.097 11.0065 13.9767 10.9972 13.8479C10.9575 12.5489 10.4136 11.3164 9.48069 10.4115C8.54778 9.5067 7.29921 9.00066 5.99958 9.00066C4.69994 9.00066 3.45137 9.5067 2.51846 10.4115C1.58555 11.3164 1.04161 12.5489 1.00191 13.8479C0.995236 13.9785 0.937696 14.1012 0.841617 14.1899C0.745538 14.2785 0.618563 14.326 0.487893 14.3222C0.357224 14.3183 0.233252 14.2635 0.142539 14.1694C0.0518249 14.0752 0.00158354 13.9493 0.00257796 13.8186C0.0389455 12.6207 0.432983 11.4612 1.13397 10.4892C1.83495 9.51721 2.81081 8.77726 3.93591 8.36459C3.44196 8.02819 3.03773 7.57614 2.7584 7.04781C2.47907 6.51948 2.33312 5.93089 2.33324 5.33326ZM5.99991 2.66659C5.29267 2.66659 4.61439 2.94755 4.11429 3.44764C3.6142 3.94774 3.33324 4.62602 3.33324 5.33326C3.33324 6.0405 3.6142 6.71878 4.11429 7.21888C4.61439 7.71898 5.29267 7.99993 5.99991 7.99993C6.70715 7.99993 7.38543 7.71898 7.88553 7.21888C8.38563 6.71878 8.66658 6.0405 8.66658 5.33326C8.66658 4.62602 8.38563 3.94774 7.88553 3.44764C7.38543 2.94755 6.70715 2.66659 5.99991 2.66659ZM11.5266 5.33326C11.4284 5.33326 11.3319 5.33993 11.2372 5.35326C11.1712 5.3651 11.1033 5.3635 11.0379 5.34856C10.9724 5.33362 10.9106 5.30565 10.8562 5.26632C10.8018 5.22698 10.7559 5.17709 10.7211 5.11962C10.6864 5.06215 10.6636 4.99827 10.6541 4.9318C10.6446 4.86533 10.6486 4.79763 10.6659 4.73273C10.6831 4.66783 10.7132 4.60708 10.7545 4.55408C10.7957 4.50108 10.8472 4.45693 10.9058 4.42426C10.9645 4.39159 11.0291 4.37107 11.0959 4.36393C11.759 4.26806 12.4351 4.39539 13.0178 4.72588C13.6006 5.05636 14.0569 5.57124 14.315 6.18948C14.5731 6.80772 14.6182 7.49422 14.4434 8.14095C14.2686 8.78768 13.8837 9.35792 13.3492 9.76193C14.1348 10.1137 14.8019 10.6853 15.2698 11.4077C15.7378 12.1301 15.9867 12.9725 15.9866 13.8333C15.9866 13.9659 15.9339 14.093 15.8401 14.1868C15.7464 14.2806 15.6192 14.3333 15.4866 14.3333C15.354 14.3333 15.2268 14.2806 15.133 14.1868C15.0393 14.093 14.9866 13.9659 14.9866 13.8333C14.9868 13.0893 14.7472 12.365 14.3034 11.768C13.8596 11.1709 13.2351 10.7328 12.5226 10.5186L12.1666 10.4119V9.29459L12.4399 9.15526C12.8451 8.95002 13.1693 8.61423 13.3601 8.20209C13.551 7.78995 13.5974 7.32551 13.4918 6.88377C13.3862 6.44202 13.1349 6.04874 12.7783 5.76741C12.4217 5.48609 11.9808 5.33314 11.5266 5.33326Z" fill="#707070"/>
</svg>
