<svg width="106" height="24" viewBox="0 0 106 24" fill="none" xmlns="http://www.w3.org/2000/svg">
<g clip-path="url(#clip0_276_2187)">
<path d="M12 15C13.6569 15 15 13.6569 15 12C15 10.3431 13.6569 9 12 9C10.3431 9 9 10.3431 9 12C9 13.6569 10.3431 15 12 15Z" stroke="#707070" stroke-linecap="round" stroke-linejoin="round"/>
<path d="M19.4 15C19.2669 15.3016 19.2272 15.6362 19.286 15.9606C19.3448 16.285 19.4995 16.5843 19.73 16.82L19.79 16.88C19.976 17.0657 20.1235 17.2863 20.2241 17.5291C20.3248 17.7719 20.3766 18.0322 20.3766 18.295C20.3766 18.5578 20.3248 18.8181 20.2241 19.0609C20.1235 19.3037 19.976 19.5243 19.79 19.71C19.6043 19.896 19.3837 20.0435 19.1409 20.1441C18.8981 20.2448 18.6378 20.2966 18.375 20.2966C18.1122 20.2966 17.8519 20.2448 17.6091 20.1441C17.3663 20.0435 17.1457 19.896 16.96 19.71L16.9 19.65C16.6643 19.4195 16.365 19.2648 16.0406 19.206C15.7162 19.1472 15.3816 19.1869 15.08 19.32C14.7842 19.4468 14.532 19.6572 14.3543 19.9255C14.1766 20.1938 14.0813 20.5082 14.08 20.83V21C14.08 21.5304 13.8693 22.0391 13.4942 22.4142C13.1191 22.7893 12.6104 23 12.08 23C11.5496 23 11.0409 22.7893 10.6658 22.4142C10.2907 22.0391 10.08 21.5304 10.08 21V20.91C10.0723 20.579 9.96512 20.258 9.77251 19.9887C9.5799 19.7194 9.31074 19.5143 9 19.4C8.69838 19.2669 8.36381 19.2272 8.03941 19.286C7.71502 19.3448 7.41568 19.4995 7.18 19.73L7.12 19.79C6.93425 19.976 6.71368 20.1235 6.47088 20.2241C6.22808 20.3248 5.96783 20.3766 5.705 20.3766C5.44217 20.3766 5.18192 20.3248 4.93912 20.2241C4.69632 20.1235 4.47575 19.976 4.29 19.79C4.10405 19.6043 3.95653 19.3837 3.85588 19.1409C3.75523 18.8981 3.70343 18.6378 3.70343 18.375C3.70343 18.1122 3.75523 17.8519 3.85588 17.6091C3.95653 17.3663 4.10405 17.1457 4.29 16.96L4.35 16.9C4.58054 16.6643 4.73519 16.365 4.794 16.0406C4.85282 15.7162 4.81312 15.3816 4.68 15.08C4.55324 14.7842 4.34276 14.532 4.07447 14.3543C3.80618 14.1766 3.49179 14.0813 3.17 14.08H3C2.46957 14.08 1.96086 13.8693 1.58579 13.4942C1.21071 13.1191 1 12.6104 1 12.08C1 11.5496 1.21071 11.0409 1.58579 10.6658C1.96086 10.2907 2.46957 10.08 3 10.08H3.09C3.42099 10.0723 3.742 9.96512 4.0113 9.77251C4.28059 9.5799 4.48572 9.31074 4.6 9C4.73312 8.69838 4.77282 8.36381 4.714 8.03941C4.65519 7.71502 4.50054 7.41568 4.27 7.18L4.21 7.12C4.02405 6.93425 3.87653 6.71368 3.77588 6.47088C3.67523 6.22808 3.62343 5.96783 3.62343 5.705C3.62343 5.44217 3.67523 5.18192 3.77588 4.93912C3.87653 4.69632 4.02405 4.47575 4.21 4.29C4.39575 4.10405 4.61632 3.95653 4.85912 3.85588C5.10192 3.75523 5.36217 3.70343 5.625 3.70343C5.88783 3.70343 6.14808 3.75523 6.39088 3.85588C6.63368 3.95653 6.85425 4.10405 7.04 4.29L7.1 4.35C7.33568 4.58054 7.63502 4.73519 7.95941 4.794C8.28381 4.85282 8.61838 4.81312 8.92 4.68H9C9.29577 4.55324 9.54802 4.34276 9.72569 4.07447C9.90337 3.80618 9.99872 3.49179 10 3.17V3C10 2.46957 10.2107 1.96086 10.5858 1.58579C10.9609 1.21071 11.4696 1 12 1C12.5304 1 13.0391 1.21071 13.4142 1.58579C13.7893 1.96086 14 2.46957 14 3V3.09C14.0013 3.41179 14.0966 3.72618 14.2743 3.99447C14.452 4.26276 14.7042 4.47324 15 4.6C15.3016 4.73312 15.6362 4.77282 15.9606 4.714C16.285 4.65519 16.5843 4.50054 16.82 4.27L16.88 4.21C17.0657 4.02405 17.2863 3.87653 17.5291 3.77588C17.7719 3.67523 18.0322 3.62343 18.295 3.62343C18.5578 3.62343 18.8181 3.67523 19.0609 3.77588C19.3037 3.87653 19.5243 4.02405 19.71 4.21C19.896 4.39575 20.0435 4.61632 20.1441 4.85912C20.2448 5.10192 20.2966 5.36217 20.2966 5.625C20.2966 5.88783 20.2448 6.14808 20.1441 6.39088C20.0435 6.63368 19.896 6.85425 19.71 7.04L19.65 7.1C19.4195 7.33568 19.2648 7.63502 19.206 7.95941C19.1472 8.28381 19.1869 8.61838 19.32 8.92V9C19.4468 9.29577 19.6572 9.54802 19.9255 9.72569C20.1938 9.90337 20.5082 9.99872 20.83 10H21C21.5304 10 22.0391 10.2107 22.4142 10.5858C22.7893 10.9609 23 11.4696 23 12C23 12.5304 22.7893 13.0391 22.4142 13.4142C22.0391 13.7893 21.5304 14 21 14H20.91C20.5882 14.0013 20.2738 14.0966 20.0055 14.2743C19.7372 14.452 19.5268 14.7042 19.4 15V15Z" stroke="#707070" stroke-linecap="round" stroke-linejoin="round"/>
</g>
<path d="M44.864 18.112C44.1173 18.112 43.4453 17.984 42.848 17.728C42.2507 17.4613 41.7813 17.088 41.44 16.608C41.0987 16.128 40.928 15.568 40.928 14.928H42.88C42.9227 15.408 43.1093 15.8027 43.44 16.112C43.7813 16.4213 44.256 16.576 44.864 16.576C45.4933 16.576 45.984 16.4267 46.336 16.128C46.688 15.8187 46.864 15.424 46.864 14.944C46.864 14.5707 46.752 14.2667 46.528 14.032C46.3147 13.7973 46.0427 13.616 45.712 13.488C45.392 13.36 44.944 13.2213 44.368 13.072C43.6427 12.88 43.0507 12.688 42.592 12.496C42.144 12.2933 41.76 11.984 41.44 11.568C41.12 11.152 40.96 10.5973 40.96 9.904C40.96 9.264 41.12 8.704 41.44 8.224C41.76 7.744 42.208 7.376 42.784 7.12C43.36 6.864 44.0267 6.736 44.784 6.736C45.8613 6.736 46.7413 7.008 47.424 7.552C48.1173 8.08533 48.5013 8.82133 48.576 9.76H46.56C46.528 9.35467 46.336 9.008 45.984 8.72C45.632 8.432 45.168 8.288 44.592 8.288C44.0693 8.288 43.6427 8.42133 43.312 8.688C42.9813 8.95467 42.816 9.33867 42.816 9.84C42.816 10.1813 42.9173 10.464 43.12 10.688C43.3333 10.9013 43.6 11.072 43.92 11.2C44.24 11.328 44.6773 11.4667 45.232 11.616C45.968 11.8187 46.5653 12.0213 47.024 12.224C47.4933 12.4267 47.888 12.7413 48.208 13.168C48.5387 13.584 48.704 14.144 48.704 14.848C48.704 15.4133 48.5493 15.9467 48.24 16.448C47.9413 16.9493 47.4987 17.3547 46.912 17.664C46.336 17.9627 45.6533 18.112 44.864 18.112ZM58.9363 13.376C58.9363 13.7067 58.9149 14.0053 58.8723 14.272H52.1363C52.1896 14.976 52.4509 15.5413 52.9203 15.968C53.3896 16.3947 53.9656 16.608 54.6483 16.608C55.6296 16.608 56.3229 16.1973 56.7283 15.376H58.6962C58.4296 16.1867 57.9443 16.8533 57.2403 17.376C56.5469 17.888 55.6829 18.144 54.6483 18.144C53.8056 18.144 53.0483 17.9573 52.3763 17.584C51.7149 17.2 51.1923 16.6667 50.8083 15.984C50.4349 15.2907 50.2483 14.4907 50.2483 13.584C50.2483 12.6773 50.4296 11.8827 50.7923 11.2C51.1656 10.5067 51.6829 9.97333 52.3443 9.6C53.0163 9.22667 53.7843 9.04 54.6483 9.04C55.4803 9.04 56.2216 9.22133 56.8723 9.584C57.5229 9.94667 58.0296 10.4587 58.3923 11.12C58.7549 11.7707 58.9363 12.5227 58.9363 13.376ZM57.0323 12.8C57.0216 12.128 56.7816 11.5893 56.3123 11.184C55.8429 10.7787 55.2616 10.576 54.5683 10.576C53.9389 10.576 53.4003 10.7787 52.9523 11.184C52.5043 11.5787 52.2376 12.1173 52.1523 12.8H57.0323ZM62.8593 10.672V15.552C62.8593 15.8827 62.9339 16.1227 63.0833 16.272C63.2433 16.4107 63.5099 16.48 63.8833 16.48H65.0033V18H63.5633C62.7419 18 62.1126 17.808 61.6753 17.424C61.2379 17.04 61.0193 16.416 61.0193 15.552V10.672H59.9793V9.184H61.0193V6.992H62.8593V9.184H65.0033V10.672H62.8593ZM68.8124 10.672V15.552C68.8124 15.8827 68.887 16.1227 69.0364 16.272C69.1964 16.4107 69.463 16.48 69.8364 16.48H70.9564V18H69.5164C68.695 18 68.0657 17.808 67.6284 17.424C67.191 17.04 66.9724 16.416 66.9724 15.552V10.672H65.9324V9.184H66.9724V6.992H68.8124V9.184H70.9564V10.672H68.8124ZM73.5655 8.016C73.2348 8.016 72.9575 7.904 72.7335 7.68C72.5095 7.456 72.3975 7.17867 72.3975 6.848C72.3975 6.51733 72.5095 6.24 72.7335 6.016C72.9575 5.792 73.2348 5.68 73.5655 5.68C73.8855 5.68 74.1575 5.792 74.3815 6.016C74.6055 6.24 74.7175 6.51733 74.7175 6.848C74.7175 7.17867 74.6055 7.456 74.3815 7.68C74.1575 7.904 73.8855 8.016 73.5655 8.016ZM74.4615 9.184V18H72.6375V9.184H74.4615ZM81.3043 9.04C81.9976 9.04 82.6163 9.184 83.1603 9.472C83.7149 9.76 84.1469 10.1867 84.4563 10.752C84.7656 11.3173 84.9203 12 84.9203 12.8V18H83.1123V13.072C83.1123 12.2827 82.9149 11.68 82.5203 11.264C82.1256 10.8373 81.5869 10.624 80.9043 10.624C80.2216 10.624 79.6776 10.8373 79.2723 11.264C78.8776 11.68 78.6803 12.2827 78.6803 13.072V18H76.8563V9.184H78.6803V10.192C78.9789 9.82933 79.3576 9.54667 79.8163 9.344C80.2856 9.14133 80.7816 9.04 81.3043 9.04ZM90.7989 9.04C91.4815 9.04 92.0842 9.17867 92.6069 9.456C93.1402 9.72267 93.5562 10.0587 93.8549 10.464V9.184H95.6949V18.144C95.6949 18.9547 95.5242 19.6747 95.1829 20.304C94.8415 20.944 94.3455 21.4453 93.6949 21.808C93.0549 22.1707 92.2869 22.352 91.3909 22.352C90.1962 22.352 89.2042 22.0693 88.4149 21.504C87.6255 20.9493 87.1775 20.192 87.0709 19.232H88.8789C89.0175 19.6907 89.3109 20.0587 89.7589 20.336C90.2175 20.624 90.7615 20.768 91.3909 20.768C92.1269 20.768 92.7189 20.544 93.1669 20.096C93.6255 19.648 93.8549 18.9973 93.8549 18.144V16.672C93.5455 17.088 93.1242 17.44 92.5909 17.728C92.0682 18.0053 91.4709 18.144 90.7989 18.144C90.0309 18.144 89.3269 17.952 88.6869 17.568C88.0575 17.1733 87.5562 16.6293 87.1829 15.936C86.8202 15.232 86.6389 14.4373 86.6389 13.552C86.6389 12.6667 86.8202 11.8827 87.1829 11.2C87.5562 10.5173 88.0575 9.98933 88.6869 9.616C89.3269 9.232 90.0309 9.04 90.7989 9.04ZM93.8549 13.584C93.8549 12.976 93.7269 12.448 93.4709 12C93.2255 11.552 92.9002 11.2107 92.4949 10.976C92.0895 10.7413 91.6522 10.624 91.1829 10.624C90.7135 10.624 90.2762 10.7413 89.8709 10.976C89.4655 11.2 89.1349 11.536 88.8789 11.984C88.6335 12.4213 88.5109 12.944 88.5109 13.552C88.5109 14.16 88.6335 14.6933 88.8789 15.152C89.1349 15.6107 89.4655 15.9627 89.8709 16.208C90.2869 16.4427 90.7242 16.56 91.1829 16.56C91.6522 16.56 92.0895 16.4427 92.4949 16.208C92.9002 15.9733 93.2255 15.632 93.4709 15.184C93.7269 14.7253 93.8549 14.192 93.8549 13.584ZM101.291 18.144C100.597 18.144 99.9733 18.0213 99.4186 17.776C98.8746 17.52 98.4426 17.1787 98.1226 16.752C97.8026 16.3147 97.632 15.8293 97.6106 15.296H99.4986C99.5306 15.6693 99.7066 15.984 100.027 16.24C100.357 16.4853 100.768 16.608 101.259 16.608C101.771 16.608 102.165 16.512 102.443 16.32C102.731 16.1173 102.875 15.8613 102.875 15.552C102.875 15.2213 102.715 14.976 102.395 14.816C102.085 14.656 101.589 14.48 100.907 14.288C100.245 14.1067 99.7066 13.9307 99.2906 13.76C98.8746 13.5893 98.512 13.328 98.2026 12.976C97.904 12.624 97.7546 12.16 97.7546 11.584C97.7546 11.1147 97.8933 10.688 98.1706 10.304C98.448 9.90933 98.8426 9.6 99.3546 9.376C99.8773 9.152 100.475 9.04 101.147 9.04C102.149 9.04 102.955 9.296 103.563 9.808C104.181 10.3093 104.512 10.9973 104.555 11.872H102.731C102.699 11.4773 102.539 11.1627 102.251 10.928C101.963 10.6933 101.573 10.576 101.083 10.576C100.603 10.576 100.235 10.6667 99.9786 10.848C99.7226 11.0293 99.5946 11.2693 99.5946 11.568C99.5946 11.8027 99.68 12 99.8506 12.16C100.021 12.32 100.229 12.448 100.475 12.544C100.72 12.6293 101.083 12.7413 101.563 12.88C102.203 13.0507 102.725 13.2267 103.131 13.408C103.547 13.5787 103.904 13.8347 104.203 14.176C104.501 14.5173 104.656 14.9707 104.667 15.536C104.667 16.0373 104.528 16.4853 104.251 16.88C103.973 17.2747 103.579 17.584 103.067 17.808C102.565 18.032 101.973 18.144 101.291 18.144Z" fill="#707070"/>
<defs>
<clipPath id="clip0_276_2187">
<rect width="24" height="24" fill="white"/>
</clipPath>
</defs>
</svg>
