<svg width="34" height="34" viewBox="0 0 34 34" fill="none" xmlns="http://www.w3.org/2000/svg">
<path fill-rule="evenodd" clip-rule="evenodd" d="M4.63396 18.0924C4.41759 17.6913 4.41759 17.2048 4.63396 16.8038C7.24151 11.9815 12.0583 7.80139 16.8751 7.80139C21.6919 7.80139 26.5087 11.9815 29.1162 16.8051C29.3326 17.2062 29.3326 17.6927 29.1162 18.0938C26.5087 22.9161 21.6919 27.0961 16.8751 27.0961C12.0583 27.0961 7.24151 22.9161 4.63396 18.0924Z" stroke="#828282" stroke-width="2.06729" stroke-linecap="round" stroke-linejoin="round"/>
<path d="M19.7984 14.5252C21.4131 16.1399 21.4131 18.7577 19.7984 20.3724C18.1838 21.987 15.5659 21.987 13.9512 20.3724C12.3366 18.7577 12.3366 16.1399 13.9512 14.5252C15.5659 12.9105 18.1838 12.9105 19.7984 14.5252" stroke="#828282" stroke-width="1.96889" stroke-linecap="round" stroke-linejoin="round"/>
</svg>
